<svg width="304" height="191" viewBox="0 0 304 191" fill="none" xmlns="http://www.w3.org/2000/svg">
<rect width="304" height="191" fill="white"/>
<path d="M66.6499 165.432C62.6899 165.432 59.3899 164.172 56.7499 161.652C54.1099 159.108 52.7899 155.964 52.7899 152.22C52.7899 148.524 54.0499 145.404 56.5699 142.86C59.1139 140.292 62.3299 139.008 66.2179 139.008C70.4419 139.008 73.8739 140.4 76.5139 143.184L72.8779 146.784C71.1019 144.96 68.8819 144.048 66.2179 144.048C63.8179 144.048 61.8499 144.84 60.3139 146.424C58.8019 148.008 58.0459 149.94 58.0459 152.22C58.0459 154.572 58.8259 156.528 60.3859 158.088C61.9459 159.624 64.0219 160.392 66.6139 160.392C69.0139 160.392 70.8019 159.936 71.9779 159.024V154.596H66.4699V149.7H77.0539V161.688C75.9259 162.888 74.4259 163.812 72.5539 164.46C70.7059 165.108 68.7379 165.432 66.6499 165.432ZM81.7229 165V139.44H86.9429V165H81.7229ZM92.6213 165V139.44H108.173V144.408H97.8413V149.7H105.941V154.668H97.8413V165H92.6213ZM116.849 165V144.408H110.045V139.44H128.981V144.408H122.105V165H116.849ZM151.396 165.432C147.748 165.432 144.628 164.148 142.036 161.58C139.468 158.988 138.184 155.868 138.184 152.22C138.184 148.572 139.468 145.464 142.036 142.896C144.628 140.304 147.748 139.008 151.396 139.008C153.94 139.008 156.268 139.632 158.38 140.88C160.492 142.104 162.1 143.748 163.204 145.812L158.668 148.332C156.988 145.476 154.564 144.048 151.396 144.048C149.188 144.048 147.304 144.852 145.744 146.46C144.208 148.044 143.44 149.964 143.44 152.22C143.44 154.476 144.208 156.408 145.744 158.016C147.304 159.6 149.188 160.392 151.396 160.392C154.564 160.392 156.988 158.964 158.668 156.108L163.204 158.628C162.1 160.716 160.504 162.372 158.416 163.596C156.328 164.82 153.988 165.432 151.396 165.432ZM163.466 165L174.482 139.44H179.126L190.178 165H184.706L182.222 159.168H171.314L168.866 165H163.466ZM176.786 146.316L173.258 154.596H180.278L176.786 146.316ZM193.028 165V139.44H202.82C205.148 139.44 207.032 140.16 208.472 141.6C209.936 143.04 210.668 144.84 210.668 147C210.668 150.36 208.916 152.58 205.412 153.66L214.592 165H208.292L199.508 154.236H198.248V165H193.028ZM198.248 149.772H202.208C203.216 149.772 204.008 149.532 204.584 149.052C205.184 148.548 205.484 147.864 205.484 147C205.484 146.136 205.184 145.464 204.584 144.984C204.008 144.48 203.216 144.228 202.208 144.228H198.248V149.772ZM216.653 165V139.44H225.077C228.749 139.44 231.857 140.676 234.401 143.148C236.945 145.62 238.217 148.644 238.217 152.22C238.217 155.796 236.945 158.82 234.401 161.292C231.857 163.764 228.749 165 225.077 165H216.653ZM221.873 160.212H225.077C227.405 160.212 229.301 159.444 230.765 157.908C232.229 156.372 232.961 154.476 232.961 152.22C232.961 149.964 232.229 148.068 230.765 146.532C229.301 144.996 227.405 144.228 225.077 144.228H221.873V160.212Z" fill="black"/>
<rect width="271" height="87" transform="translate(17 40)" fill="white"/>
<path d="M17 40.3584H23.6686V65.7892H35.4045V71.6688H17V40.3584Z" fill="#1D1D1B"/>
<path d="M56.3904 65.5264C61.5771 65.5264 65.6644 61.2959 65.6644 56.0854C65.6644 50.875 61.5771 46.5967 56.3904 46.5967C51.2037 46.5967 47.1643 50.875 47.1643 56.0854C47.1643 61.2959 51.2037 65.5264 56.3904 65.5264ZM56.3904 40C65.3058 40 72.2852 47.1703 72.2852 56.0854C72.2852 65.0005 65.2819 72.1231 56.3904 72.1231C47.4989 72.1231 40.5435 64.9049 40.5435 56.0854C40.5435 47.2659 47.5228 40 56.3904 40Z" fill="#1D1D1B"/>
<path d="M87.3912 74.2025C87.5346 78.0506 91.1677 81.9704 96.8085 81.9704C102.449 81.9704 105.27 78.9588 105.748 75.5171C106.011 71.1193 102.641 68.8487 98.2427 67.8209L92.2672 66.3152C82.085 63.5665 80.5074 57.7825 80.5074 53.5998C80.5074 45.4734 87.7975 40.0479 96.1154 40.0479C104.863 40.0479 111.532 45.4256 111.532 54.0778H104.242C104.242 49.7517 100.872 46.9314 95.9959 46.9314C91.6696 46.9314 87.8214 49.5366 87.8214 53.4564C87.8214 55.2968 88.5146 58.2127 94.1554 59.6468L100.203 61.2242C109.763 63.7577 113.755 69.1355 112.99 75.9473C112.297 83.3805 105.915 88.6627 96.8324 88.6627C87.0088 88.6627 80.125 81.9226 80.125 74.2264H87.4151L87.3912 74.2025Z" fill="#1D1D1B"/>
<path d="M159.886 79.8909C155.775 85.2687 149.154 88.6148 141.457 88.6148C128.048 88.6148 117.531 77.7398 117.531 64.3313C117.531 50.9228 128.048 40 141.457 40C149.01 40 155.559 43.2984 159.766 48.5327L154.125 52.9305C151.042 49.417 146.62 47.0269 141.457 47.0269C132.04 47.0269 124.822 54.7948 124.822 64.3552C124.822 73.9157 132.04 81.6118 141.457 81.6118C146.692 81.6118 151.305 79.1978 154.269 75.4214L159.91 79.8909H159.886Z" fill="#1D1D1B"/>
<path d="M177.047 69.5896H191.221L184.146 49.7039L177.047 69.5896ZM193.707 76.1146H174.585L170.044 87.9457H162.276L180.131 40.5498H188.042L205.921 87.9457H198.224L193.683 76.1146H193.707Z" fill="#1D1D1B"/>
<path d="M211.825 40.5498H219.115V81.2773H238.093V87.9457H211.825V40.5498Z" fill="#1D1D1B"/>
<path d="M263.931 81.4923C273.348 81.4923 280.638 73.844 280.638 64.3552C280.638 54.8665 273.348 47.1703 263.931 47.1703C254.513 47.1703 247.271 54.8665 247.271 64.3552C247.271 73.844 254.561 81.4923 263.931 81.4923ZM263.931 40C277.483 40 288 50.875 288 64.3552C288 77.8354 277.483 88.6387 263.931 88.6387C250.378 88.6387 239.981 77.7637 239.981 64.3552C239.981 50.9467 250.45 40 263.931 40Z" fill="#1D1D1B"/>
<path d="M70.4925 81.2771H17V87.9455H70.4925V81.2771Z" fill="#1D1D1B"/>
<path d="M32.3689 119.304C31.0782 121.12 28.9031 122.315 26.3456 122.315C22.1388 122.315 18.8882 118.897 18.8882 114.715C18.8882 110.532 22.1388 107.09 26.3456 107.09C28.8553 107.09 31.0065 108.238 32.2972 110.006L30.0982 111.584C29.2377 110.46 27.8992 109.696 26.3217 109.696C23.6208 109.696 21.613 111.942 21.613 114.715C21.613 117.487 23.6447 119.71 26.3217 119.71C27.9231 119.71 29.3094 118.921 30.1699 117.702L32.345 119.304H32.3689Z" fill="#1D1D1B"/>
<path d="M37.1253 122.1H34.4961V112.062H37.1253V114.428C37.6511 112.588 38.8223 111.847 39.9696 111.847C40.6867 111.847 41.2125 111.99 41.6189 112.205L41.1647 114.571C40.5433 114.285 39.8979 114.285 39.635 114.285C37.8424 114.285 37.1253 115.886 37.1253 118.539V122.1Z" fill="#1D1D1B"/>
<path d="M51.108 120.81C50.4626 121.837 48.9807 122.291 47.9768 122.291C45.3237 122.291 42.8618 120.26 42.8618 117.057C42.8618 113.854 45.3476 111.823 47.9768 111.823C48.8851 111.823 50.367 112.157 51.108 113.281V112.038H53.7372V122.076H51.108V120.786V120.81ZM48.3593 119.782C49.7695 119.782 51.108 118.802 51.108 117.081C51.108 115.36 49.7217 114.38 48.3593 114.38C46.9968 114.38 45.5866 115.456 45.5866 117.081C45.5866 118.706 46.9251 119.782 48.3593 119.782Z" fill="#1D1D1B"/>
<path d="M63.2024 109.098H62.103C60.884 109.098 60.4776 110.03 60.4776 111.249V112.038H62.6049V114.141H60.4776V122.076H57.8245V114.141H55.9124V112.038H57.8245V111.249C57.8245 108.333 59.2825 106.588 62.103 106.588H63.2024V109.098Z" fill="#1D1D1B"/>
<path d="M68.6042 112.038H70.7315V114.141H68.6042V122.076H65.9989V114.141H64.1584V112.038H65.9989V108.214H68.6042V112.038Z" fill="#1D1D1B"/>
<path d="M78.4041 122.1V107.281H84.1883C88.419 107.281 90.8809 110.508 90.8809 114.739C90.8809 118.969 88.419 122.124 84.1883 122.124H78.4041V122.1ZM81.1528 119.591H84.1883C86.8175 119.591 88.1321 117.392 88.1321 114.739C88.1321 112.086 86.8175 109.815 84.1883 109.815H81.1528V119.614V119.591Z" fill="#1D1D1B"/>
<path d="M96.45 122.1H93.8208V112.062H96.45V114.428C96.9759 112.588 98.1471 111.847 99.2943 111.847C100.011 111.847 100.537 111.99 100.944 112.205L100.489 114.571C99.868 114.285 99.2226 114.285 98.9597 114.285C97.1671 114.285 96.45 115.886 96.45 118.539V122.1Z" fill="#1D1D1B"/>
<path d="M104.218 106.588C105.126 106.588 105.867 107.282 105.867 108.166C105.867 109.05 105.102 109.767 104.218 109.767C103.334 109.767 102.521 109.074 102.521 108.166C102.521 107.258 103.286 106.588 104.218 106.588ZM105.509 122.1H102.903V112.062H105.509V122.1Z" fill="#1D1D1B"/>
<path d="M111.293 122.1H108.664V112.062H111.293V113.544C111.843 112.468 113.133 111.847 114.281 111.847C116.623 111.847 118.033 113.329 118.033 116.173V122.1H115.404V116.627C115.404 115.169 114.639 114.38 113.492 114.38C112.345 114.38 111.293 114.978 111.293 116.723V122.076V122.1Z" fill="#1D1D1B"/>
<path d="M123.746 117.798V122.1H121.141V106.588H123.746V115.073L126.519 112.062H129.913L125.706 116.483L130.821 122.124H127.522L123.746 117.822V117.798Z" fill="#1D1D1B"/>
<path d="M131.92 114.81C131.92 113.209 133.617 111.823 135.625 111.823C137.513 111.823 139.449 112.683 139.545 114.978H137.059C137.011 114.213 136.294 113.95 135.697 113.95C135.052 113.95 134.43 114.189 134.43 114.93C134.43 115.336 134.908 115.623 135.482 115.766L137.155 116.173C139.473 116.77 139.784 118.396 139.784 119.184C139.784 121.216 137.752 122.291 135.673 122.291C133.689 122.291 131.681 121.096 131.634 118.921H134.095C134.167 119.638 134.98 120.236 135.936 120.188C136.677 120.188 137.251 119.758 137.251 119.184C137.251 118.658 136.892 118.419 136.151 118.228L134.765 117.894C132.159 117.177 131.92 116.005 131.92 114.81Z" fill="#1D1D1B"/>
<path d="M147.433 122.1V106.588H150.062V113.376C150.612 112.372 151.878 111.823 153.193 111.823C155.846 111.823 158.117 113.854 158.117 117.081C158.117 120.308 155.822 122.315 153.193 122.315C151.878 122.315 150.588 121.766 150.062 120.738V122.1H147.433ZM152.763 119.806C154.221 119.806 155.416 118.706 155.416 117.057C155.416 115.408 154.221 114.356 152.763 114.356C151.4 114.356 150.086 115.336 150.086 117.057C150.086 118.778 151.329 119.806 152.763 119.806Z" fill="#1D1D1B"/>
<path d="M163.519 127H160.746L163.041 121.311L159.121 112.038H161.917L164.403 118.3L166.913 112.038H169.709L163.495 127H163.519Z" fill="#1D1D1B"/>
<path d="M180.178 112.038H182.306V114.141H180.178V122.076H177.573V114.141H175.733V112.038H177.573V108.214H180.178V112.038Z" fill="#1D1D1B"/>
<path d="M187.038 122.1H184.409V106.588H187.038V113.615C187.516 112.396 189.165 111.847 190.169 111.847C192.775 111.847 194.209 113.567 194.209 116.507V122.1H191.58V116.627C191.58 115.193 190.528 114.38 189.452 114.38C188.377 114.38 187.038 114.978 187.038 116.722V122.076V122.1Z" fill="#1D1D1B"/>
<path d="M206.925 117.941H199.252C199.419 119.28 200.543 120.093 202.025 120.093C203.029 120.093 204.056 119.662 204.534 118.802C205.156 119.136 205.897 119.543 206.542 119.877C205.634 121.598 203.698 122.315 201.857 122.315C198.989 122.315 196.647 120.212 196.647 117.033C196.647 113.854 198.989 111.823 201.857 111.823C204.726 111.823 206.948 113.854 206.948 117.033C206.948 117.296 206.948 117.702 206.901 117.941H206.925ZM204.415 116.149C204.224 114.763 203.196 114.022 201.905 114.022C200.519 114.022 199.443 114.786 199.252 116.149H204.415Z" fill="#1D1D1B"/>
<path d="M214.884 107.258H217.633V119.638H223.345V122.1H214.86V107.281L214.884 107.258Z" fill="#1D1D1B"/>
<path d="M233.217 120.81C232.571 121.837 231.089 122.291 230.085 122.291C227.432 122.291 224.97 120.26 224.97 117.057C224.97 113.854 227.456 111.823 230.085 111.823C230.994 111.823 232.476 112.157 233.217 113.281V112.038H235.846V122.076H233.217V120.786V120.81ZM230.468 119.782C231.878 119.782 233.217 118.802 233.217 117.081C233.217 115.36 231.83 114.38 230.468 114.38C229.105 114.38 227.695 115.456 227.695 117.081C227.695 118.706 229.034 119.782 230.468 119.782Z" fill="#1D1D1B"/>
<path d="M241.606 117.798V122.1H239.001V106.588H241.606V115.073L244.379 112.062H247.773L243.566 116.483L248.681 122.124H245.383L241.606 117.822V117.798Z" fill="#1D1D1B"/>
<path d="M259.485 117.941H251.812C251.98 119.28 253.103 120.093 254.585 120.093C255.589 120.093 256.617 119.662 257.095 118.802C257.716 119.136 258.457 119.543 259.102 119.877C258.194 121.598 256.258 122.315 254.418 122.315C251.549 122.315 249.207 120.212 249.207 117.033C249.207 113.854 251.549 111.823 254.418 111.823C257.286 111.823 259.509 113.854 259.509 117.033C259.509 117.296 259.509 117.702 259.461 117.941H259.485ZM256.975 116.149C256.784 114.763 255.756 114.022 254.465 114.022C253.079 114.022 252.004 114.786 251.812 116.149H256.975Z" fill="#1D1D1B"/>
</svg>
