<svg width="450" height="284" viewBox="0 0 450 284" fill="none" xmlns="http://www.w3.org/2000/svg">
<rect width="450" height="284" rx="15" fill="#FF5628"/>
<path d="M89 99.3584H95.6686V124.789H107.404V130.669H89V99.3584Z" fill="#1D1D1B"/>
<path d="M128.39 124.526C133.577 124.526 137.664 120.296 137.664 115.085C137.664 109.875 133.577 105.597 128.39 105.597C123.204 105.597 119.164 109.875 119.164 115.085C119.164 120.296 123.204 124.526 128.39 124.526ZM128.39 99C137.306 99 144.285 106.17 144.285 115.085C144.285 124.001 137.282 131.123 128.39 131.123C119.499 131.123 112.543 123.905 112.543 115.085C112.543 106.266 119.523 99 128.39 99Z" fill="#1D1D1B"/>
<path d="M159.391 133.203C159.535 137.051 163.168 140.97 168.809 140.97C174.449 140.97 177.27 137.959 177.748 134.517C178.011 130.119 174.641 127.849 170.243 126.821L164.267 125.315C154.085 122.567 152.507 116.782 152.507 112.6C152.507 104.473 159.798 99.0479 168.115 99.0479C176.863 99.0479 183.532 104.426 183.532 113.078H176.242C176.242 108.752 172.872 105.931 167.996 105.931C163.67 105.931 159.821 108.537 159.821 112.456C159.821 114.297 160.515 117.213 166.155 118.647L172.203 120.224C181.763 122.758 185.755 128.135 184.99 134.947C184.297 142.381 177.915 147.663 168.832 147.663C159.009 147.663 152.125 140.923 152.125 133.226H159.415L159.391 133.203Z" fill="#1D1D1B"/>
<path d="M231.886 138.891C227.775 144.269 221.154 147.615 213.457 147.615C200.048 147.615 189.531 136.74 189.531 123.331C189.531 109.923 200.048 99 213.457 99C221.01 99 227.559 102.298 231.766 107.533L226.125 111.93C223.042 108.417 218.62 106.027 213.457 106.027C204.04 106.027 196.822 113.795 196.822 123.355C196.822 132.916 204.04 140.612 213.457 140.612C218.692 140.612 223.305 138.198 226.269 134.421L231.91 138.891H231.886Z" fill="#1D1D1B"/>
<path d="M249.047 128.59H263.221L256.146 108.704L249.047 128.59ZM265.707 135.115H246.585L242.044 146.946H234.276L252.131 99.5498H260.042L277.921 146.946H270.224L265.683 135.115H265.707Z" fill="#1D1D1B"/>
<path d="M283.825 99.5498H291.115V140.277H310.093V146.946H283.825V99.5498Z" fill="#1D1D1B"/>
<path d="M335.931 140.492C345.348 140.492 352.638 132.844 352.638 123.355C352.638 113.866 345.348 106.17 335.931 106.17C326.513 106.17 319.271 113.866 319.271 123.355C319.271 132.844 326.561 140.492 335.931 140.492ZM335.931 99C349.483 99 360 109.875 360 123.355C360 136.835 349.483 147.639 335.931 147.639C322.378 147.639 311.981 136.764 311.981 123.355C311.981 109.947 322.45 99 335.931 99Z" fill="#1D1D1B"/>
<path d="M142.493 140.277H89V146.946H142.493V140.277Z" fill="#1D1D1B"/>
<path d="M104.369 178.304C103.078 180.12 100.903 181.315 98.3456 181.315C94.1388 181.315 90.8882 177.897 90.8882 173.715C90.8882 169.532 94.1388 166.09 98.3456 166.09C100.855 166.09 103.006 167.238 104.297 169.006L102.098 170.584C101.238 169.46 99.8992 168.696 98.3217 168.696C95.6208 168.696 93.613 170.942 93.613 173.715C93.613 176.487 95.6447 178.71 98.3217 178.71C99.9231 178.71 101.309 177.921 102.17 176.702L104.345 178.304H104.369Z" fill="#1D1D1B"/>
<path d="M109.125 181.1H106.496V171.062H109.125V173.428C109.651 171.588 110.822 170.847 111.97 170.847C112.687 170.847 113.213 170.99 113.619 171.205L113.165 173.571C112.543 173.285 111.898 173.285 111.635 173.285C109.842 173.285 109.125 174.886 109.125 177.539V181.1Z" fill="#1D1D1B"/>
<path d="M123.108 179.81C122.463 180.837 120.981 181.291 119.977 181.291C117.324 181.291 114.862 179.26 114.862 176.057C114.862 172.854 117.348 170.823 119.977 170.823C120.885 170.823 122.367 171.157 123.108 172.281V171.038H125.737V181.076H123.108V179.786V179.81ZM120.359 178.782C121.769 178.782 123.108 177.802 123.108 176.081C123.108 174.36 121.722 173.38 120.359 173.38C118.997 173.38 117.587 174.456 117.587 176.081C117.587 177.706 118.925 178.782 120.359 178.782Z" fill="#1D1D1B"/>
<path d="M135.202 168.098H134.103C132.884 168.098 132.478 169.03 132.478 170.249V171.038H134.605V173.141H132.478V181.076H129.825V173.141H127.912V171.038H129.825V170.249C129.825 167.333 131.283 165.588 134.103 165.588H135.202V168.098Z" fill="#1D1D1B"/>
<path d="M140.604 171.038H142.731V173.141H140.604V181.076H137.999V173.141H136.158V171.038H137.999V167.214H140.604V171.038Z" fill="#1D1D1B"/>
<path d="M150.404 181.1V166.281H156.188C160.419 166.281 162.881 169.508 162.881 173.739C162.881 177.969 160.419 181.124 156.188 181.124H150.404V181.1ZM153.153 178.591H156.188C158.818 178.591 160.132 176.392 160.132 173.739C160.132 171.086 158.818 168.815 156.188 168.815H153.153V178.614V178.591Z" fill="#1D1D1B"/>
<path d="M168.45 181.1H165.821V171.062H168.45V173.428C168.976 171.588 170.147 170.847 171.294 170.847C172.011 170.847 172.537 170.99 172.944 171.205L172.489 173.571C171.868 173.285 171.223 173.285 170.96 173.285C169.167 173.285 168.45 174.886 168.45 177.539V181.1Z" fill="#1D1D1B"/>
<path d="M176.218 165.588C177.126 165.588 177.867 166.282 177.867 167.166C177.867 168.05 177.102 168.767 176.218 168.767C175.334 168.767 174.521 168.074 174.521 167.166C174.521 166.258 175.286 165.588 176.218 165.588ZM177.509 181.1H174.903V171.062H177.509V181.1Z" fill="#1D1D1B"/>
<path d="M183.293 181.1H180.664V171.062H183.293V172.544C183.843 171.468 185.133 170.847 186.281 170.847C188.623 170.847 190.033 172.329 190.033 175.173V181.1H187.404V175.627C187.404 174.169 186.639 173.38 185.492 173.38C184.345 173.38 183.293 173.978 183.293 175.723V181.076V181.1Z" fill="#1D1D1B"/>
<path d="M195.746 176.798V181.1H193.141V165.588H195.746V174.073L198.519 171.062H201.913L197.706 175.483L202.821 181.124H199.522L195.746 176.822V176.798Z" fill="#1D1D1B"/>
<path d="M203.92 173.81C203.92 172.209 205.617 170.823 207.625 170.823C209.513 170.823 211.449 171.683 211.545 173.978H209.059C209.011 173.213 208.294 172.95 207.697 172.95C207.052 172.95 206.43 173.189 206.43 173.93C206.43 174.336 206.908 174.623 207.482 174.766L209.155 175.173C211.473 175.77 211.784 177.396 211.784 178.184C211.784 180.216 209.752 181.291 207.673 181.291C205.689 181.291 203.681 180.096 203.634 177.921H206.095C206.167 178.638 206.98 179.236 207.936 179.188C208.677 179.188 209.251 178.758 209.251 178.184C209.251 177.658 208.892 177.419 208.151 177.228L206.765 176.894C204.159 176.177 203.92 175.005 203.92 173.81Z" fill="#1D1D1B"/>
<path d="M219.433 181.1V165.588H222.062V172.376C222.612 171.372 223.878 170.823 225.193 170.823C227.846 170.823 230.117 172.854 230.117 176.081C230.117 179.308 227.822 181.315 225.193 181.315C223.878 181.315 222.588 180.766 222.062 179.738V181.1H219.433ZM224.763 178.806C226.221 178.806 227.416 177.706 227.416 176.057C227.416 174.408 226.221 173.356 224.763 173.356C223.4 173.356 222.086 174.336 222.086 176.057C222.086 177.778 223.329 178.806 224.763 178.806Z" fill="#1D1D1B"/>
<path d="M235.519 186H232.746L235.041 180.311L231.121 171.038H233.917L236.403 177.3L238.913 171.038H241.709L235.495 186H235.519Z" fill="#1D1D1B"/>
<path d="M252.178 171.038H254.306V173.141H252.178V181.076H249.573V173.141H247.733V171.038H249.573V167.214H252.178V171.038Z" fill="#1D1D1B"/>
<path d="M259.038 181.1H256.409V165.588H259.038V172.615C259.516 171.396 261.165 170.847 262.169 170.847C264.775 170.847 266.209 172.567 266.209 175.507V181.1H263.58V175.627C263.58 174.193 262.528 173.38 261.452 173.38C260.377 173.38 259.038 173.978 259.038 175.722V181.076V181.1Z" fill="#1D1D1B"/>
<path d="M278.925 176.941H271.252C271.419 178.28 272.543 179.093 274.025 179.093C275.029 179.093 276.056 178.662 276.534 177.802C277.156 178.136 277.897 178.543 278.542 178.877C277.634 180.598 275.698 181.315 273.857 181.315C270.989 181.315 268.647 179.212 268.647 176.033C268.647 172.854 270.989 170.823 273.857 170.823C276.726 170.823 278.948 172.854 278.948 176.033C278.948 176.296 278.948 176.702 278.901 176.941H278.925ZM276.415 175.149C276.224 173.763 275.196 173.022 273.905 173.022C272.519 173.022 271.443 173.786 271.252 175.149H276.415Z" fill="#1D1D1B"/>
<path d="M286.884 166.258H289.633V178.638H295.345V181.1H286.86V166.281L286.884 166.258Z" fill="#1D1D1B"/>
<path d="M305.217 179.81C304.571 180.837 303.089 181.291 302.085 181.291C299.432 181.291 296.97 179.26 296.97 176.057C296.97 172.854 299.456 170.823 302.085 170.823C302.994 170.823 304.476 171.157 305.217 172.281V171.038H307.846V181.076H305.217V179.786V179.81ZM302.468 178.782C303.878 178.782 305.217 177.802 305.217 176.081C305.217 174.36 303.83 173.38 302.468 173.38C301.105 173.38 299.695 174.456 299.695 176.081C299.695 177.706 301.034 178.782 302.468 178.782Z" fill="#1D1D1B"/>
<path d="M313.606 176.798V181.1H311.001V165.588H313.606V174.073L316.379 171.062H319.773L315.566 175.483L320.681 181.124H317.383L313.606 176.822V176.798Z" fill="#1D1D1B"/>
<path d="M331.485 176.941H323.812C323.98 178.28 325.103 179.093 326.585 179.093C327.589 179.093 328.617 178.662 329.095 177.802C329.716 178.136 330.457 178.543 331.102 178.877C330.194 180.598 328.258 181.315 326.418 181.315C323.549 181.315 321.207 179.212 321.207 176.033C321.207 172.854 323.549 170.823 326.418 170.823C329.286 170.823 331.509 172.854 331.509 176.033C331.509 176.296 331.509 176.702 331.461 176.941H331.485ZM328.975 175.149C328.784 173.763 327.756 173.022 326.465 173.022C325.079 173.022 324.004 173.786 323.812 175.149H328.975Z" fill="#1D1D1B"/>
</svg>
