<?xml version="1.0" encoding="UTF-8" standalone="no"?>
<!DOCTYPE svg PUBLIC "-//W3C//DTD SVG 1.1//EN" "http://www.w3.org/Graphics/SVG/1.1/DTD/svg11.dtd">
<svg width="100%" height="100%" viewBox="0 0 20 20" version="1.1" xmlns="http://www.w3.org/2000/svg" xmlns:xlink="http://www.w3.org/1999/xlink" xml:space="preserve" xmlns:serif="http://www.serif.com/" style="fill-rule:evenodd;clip-rule:evenodd;stroke-linejoin:round;stroke-miterlimit:2;">
    <g transform="matrix(1,0,0,1,-12,-10)">
        <path d="M31.6,20.227C31.6,19.518 31.536,18.836 31.418,18.182L22,18.182L22,22.05L27.382,22.05C27.15,23.3 26.445,24.359 25.386,25.068L25.386,27.577L28.618,27.577C30.509,25.836 31.6,23.273 31.6,20.227Z" style="fill:rgb(66,133,244);fill-rule:nonzero;"/>
    </g>
    <g transform="matrix(1,0,0,1,-12,-10)">
        <path d="M22,30C24.7,30 26.964,29.105 28.618,27.577L25.386,25.068C24.491,25.668 23.345,26.023 22,26.023C19.395,26.023 17.191,24.264 16.404,21.9L13.064,21.9L13.064,24.491C14.709,27.759 18.091,30 22,30Z" style="fill:rgb(52,168,83);fill-rule:nonzero;"/>
    </g>
    <g transform="matrix(1,0,0,1,-12,-10)">
        <path d="M16.404,21.9C16.204,21.3 16.091,20.659 16.091,20C16.091,19.341 16.204,18.7 16.404,18.1L16.404,15.509L13.064,15.509C12.386,16.859 12,18.386 12,20C12,21.614 12.386,23.141 13.064,24.491L16.404,21.9Z" style="fill:rgb(251,188,4);fill-rule:nonzero;"/>
    </g>
    <g transform="matrix(1,0,0,1,-12,-10)">
        <path d="M22,13.977C23.468,13.977 24.786,14.482 25.823,15.473L28.691,12.604C26.959,10.991 24.695,10 22,10C18.091,10 14.709,12.241 13.064,15.509L16.404,18.1C17.191,15.736 19.395,13.977 22,13.977Z" style="fill:rgb(233,66,53);fill-rule:nonzero;"/>
    </g>
</svg>
