<?xml version="1.0" encoding="UTF-8" standalone="no"?>
<!DOCTYPE svg PUBLIC "-//W3C//DTD SVG 1.1//EN" "http://www.w3.org/Graphics/SVG/1.1/DTD/svg11.dtd">
<svg width="100%" height="100%" viewBox="0 0 538 96" version="1.1" xmlns="http://www.w3.org/2000/svg" xmlns:xlink="http://www.w3.org/1999/xlink" xml:space="preserve" xmlns:serif="http://www.serif.com/" style="fill-rule:evenodd;clip-rule:evenodd;stroke-linejoin:round;stroke-miterlimit:2;">
    <g transform="matrix(4.166667,0,0,4.166667,0,62.290833)">
        <path d="M0,-14.69L3.153,-14.69L3.153,-2.767L8.687,-2.767L8.687,0L0,0L0,-14.69Z" style="fill:rgb(35,31,32);fill-rule:nonzero;"/>
    </g>
    <g transform="matrix(4.166667,0,0,4.166667,77.482083,63.183333)">
        <path d="M0,-15.164C4.204,-15.164 7.507,-11.775 7.507,-7.571C7.507,-3.41 4.204,0 0,0C-4.182,0 -7.485,-3.41 -7.485,-7.571C-7.485,-11.775 -4.182,-15.164 0,-15.164M0,-3.11C2.445,-3.11 4.375,-5.105 4.375,-7.571C4.375,-10.038 2.445,-12.054 0,-12.054C-2.445,-12.054 -4.354,-10.038 -4.354,-7.571C-4.354,-5.105 -2.445,-3.11 0,-3.11" style="fill:rgb(35,31,32);fill-rule:nonzero;"/>
    </g>
    <g transform="matrix(4.166667,0,0,4.166667,142.995,28.4175)">
        <path d="M0,9.32C0.065,11.139 1.786,12.99 4.449,12.99C7.08,12.99 8.444,11.561 8.671,9.937C8.801,7.859 7.209,6.787 5.131,6.3L2.306,5.586C-2.501,4.287 -3.248,1.559 -3.248,-0.422C-3.248,-4.254 0.195,-6.82 4.124,-6.82C8.249,-6.82 11.399,-4.287 11.399,-0.195L7.956,-0.195C7.956,-2.241 6.365,-3.573 4.059,-3.573C2.013,-3.573 0.195,-2.338 0.195,-0.487C0.195,0.389 0.52,1.754 3.183,2.436L6.04,3.183C10.555,4.384 12.438,6.917 12.081,10.132C11.756,13.64 8.736,16.14 4.449,16.14C-0.195,16.14 -3.443,12.958 -3.443,9.32L0,9.32Z" style="fill:rgb(35,31,32);fill-rule:nonzero;"/>
    </g>
    <g transform="matrix(4.166667,0,0,4.166667,285.61375,17.185417)">
        <path d="M0,14.712C-1.949,17.244 -5.066,18.836 -8.703,18.836C-15.036,18.836 -20.005,13.705 -20.005,7.373C-20.005,1.006 -15.036,-4.124 -8.703,-4.124C-5.131,-4.124 -2.046,-2.566 -0.065,-0.097L-2.729,1.981C-4.189,0.325 -6.268,-0.812 -8.703,-0.812C-13.153,-0.812 -16.563,2.858 -16.563,7.373C-16.563,11.886 -13.153,15.523 -8.703,15.523C-6.235,15.523 -4.06,14.387 -2.663,12.601L0,14.712Z" style="fill:rgb(35,31,32);fill-rule:nonzero;"/>
    </g>
    <g transform="matrix(4.166667,0,0,4.166667,352.077083,24.3575)">
        <path d="M0,11.204L-9.028,11.204L-11.172,16.79L-14.841,16.79L-6.398,-5.586L-2.663,-5.586L5.781,16.79L2.143,16.79L0,11.204ZM-7.859,8.119L-1.169,8.119L-4.515,-1.266L-7.859,8.119Z" style="fill:rgb(35,31,32);fill-rule:nonzero;"/>
    </g>
    <g transform="matrix(4.166667,0,0,4.166667,387.742083,94.315833)">
        <path d="M0,-22.376L3.443,-22.376L3.443,-3.15L12.406,-3.15L12.406,0L0,0L0,-22.376Z" style="fill:rgb(35,31,32);fill-rule:nonzero;"/>
    </g>
    <g transform="matrix(4.166667,0,0,4.166667,490.28125,95.666667)">
        <path d="M0,-22.96C6.398,-22.96 11.367,-17.829 11.367,-11.463C11.367,-5.131 6.398,0 0,0C-6.365,0 -11.302,-5.131 -11.302,-11.463C-11.302,-17.829 -6.365,-22.96 0,-22.96M0,-3.377C4.449,-3.377 7.893,-6.982 7.893,-11.463C7.893,-15.945 4.449,-19.582 0,-19.582C-4.417,-19.582 -7.858,-15.945 -7.858,-11.463C-7.858,-6.982 -4.417,-3.377 0,-3.377" style="fill:rgb(35,31,32);fill-rule:nonzero;"/>
    </g>
    <g transform="matrix(-4.166667,0,0,4.166667,289.580833,-115.43875)">
        <rect x="44.247" y="47.191" width="25.252" height="3.15" style="fill:rgb(35,31,32);"/>
    </g>
</svg>
