<?xml version="1.0" encoding="UTF-8" standalone="no"?>
<!DOCTYPE svg PUBLIC "-//W3C//DTD SVG 1.1//EN" "http://www.w3.org/Graphics/SVG/1.1/DTD/svg11.dtd">
<svg width="100%" height="100%" viewBox="0 0 473 152" version="1.1" xmlns="http://www.w3.org/2000/svg" xmlns:xlink="http://www.w3.org/1999/xlink" xml:space="preserve" xmlns:serif="http://www.serif.com/" style="fill-rule:evenodd;clip-rule:evenodd;stroke-linejoin:round;stroke-miterlimit:2;">
    <g transform="matrix(1,0,0,1,0,0.000002)">
        <g transform="matrix(4.166667,0,0,4.166667,0,55.21125)">
            <path d="M0,-13.097L2.793,-13.097L2.793,-2.455L7.698,-2.455L7.698,0L0,0L0,-13.097Z" style="fill:rgb(35,31,32);fill-rule:nonzero;"/>
        </g>
        <g transform="matrix(4.166667,0,0,4.166667,68.664583,56.001667)">
            <path d="M0,-13.44C3.726,-13.44 6.652,-10.436 6.652,-6.711C6.652,-3.023 3.726,0 0,0C-3.705,0 -6.634,-3.023 -6.634,-6.711C-6.634,-10.436 -3.705,-13.44 0,-13.44M0,-2.757C2.167,-2.757 3.878,-4.525 3.878,-6.711C3.878,-8.896 2.167,-10.683 0,-10.683C-2.167,-10.683 -3.857,-8.896 -3.857,-6.711C-3.857,-4.525 -2.167,-2.757 0,-2.757" style="fill:rgb(35,31,32);fill-rule:nonzero;"/>
        </g>
        <g transform="matrix(4.166667,0,0,4.166667,122.713333,25.175)">
            <path d="M0,8.264C0.056,9.875 1.584,11.514 3.943,11.514C6.274,11.514 7.485,10.249 7.686,8.809C7.799,6.968 6.389,6.017 4.547,5.586L2.044,4.953C-2.215,3.802 -2.878,1.385 -2.878,-0.371C-2.878,-3.768 0.173,-6.042 3.655,-6.042C7.311,-6.042 10.103,-3.795 10.103,-0.17L7.051,-0.17C7.051,-1.983 5.642,-3.162 3.597,-3.162C1.784,-3.162 0.173,-2.07 0.173,-0.427C0.173,0.347 0.461,1.558 2.821,2.162L5.354,2.824C9.354,3.888 11.023,6.134 10.706,8.982C10.419,12.091 7.741,14.306 3.943,14.306C-0.171,14.306 -3.051,11.488 -3.051,8.264L0,8.264Z" style="fill:rgb(35,31,32);fill-rule:nonzero;"/>
        </g>
        <g transform="matrix(4.166667,0,0,4.166667,249.0925,15.22375)">
            <path d="M0,13.041C-1.725,15.286 -4.488,16.694 -7.711,16.694C-13.323,16.694 -17.726,12.148 -17.726,6.535C-17.726,0.895 -13.323,-3.653 -7.711,-3.653C-4.546,-3.653 -1.812,-2.272 -0.056,-0.082L-2.415,1.759C-3.71,0.29 -5.552,-0.716 -7.711,-0.716C-11.652,-0.716 -14.676,2.536 -14.676,6.535C-14.676,10.538 -11.652,13.76 -7.711,13.76C-5.523,13.76 -3.594,12.753 -2.355,11.169L0,13.041Z" style="fill:rgb(35,31,32);fill-rule:nonzero;"/>
        </g>
        <g transform="matrix(4.166667,0,0,4.166667,308.007917,21.590417)">
            <path d="M0,9.929L-8.003,9.929L-9.901,14.878L-13.153,14.878L-5.672,-4.949L-2.362,-4.949L5.12,14.878L1.897,14.878L0,9.929ZM-6.967,7.196L-1.038,7.196L-4.001,-1.122L-6.967,7.196Z" style="fill:rgb(35,31,32);fill-rule:nonzero;"/>
        </g>
        <g transform="matrix(4.166667,0,0,4.166667,339.607917,83.5825)">
            <path d="M0,-19.827L3.051,-19.827L3.051,-2.79L10.992,-2.79L10.992,0L0,0L0,-19.827Z" style="fill:rgb(35,31,32);fill-rule:nonzero;"/>
        </g>
        <g transform="matrix(4.166667,0,0,4.166667,430.477083,84.785)">
            <path d="M0,-20.348C5.67,-20.348 10.071,-15.799 10.071,-10.16C10.071,-4.546 5.67,0 0,0C-5.641,0 -10.017,-4.546 -10.017,-10.16C-10.017,-15.799 -5.641,-20.348 0,-20.348M0,-2.992C3.942,-2.992 6.993,-6.188 6.993,-10.16C6.993,-14.132 3.942,-17.354 0,-17.354C-3.914,-17.354 -6.966,-14.132 -6.966,-10.16C-6.966,-6.188 -3.914,-2.992 0,-2.992" style="fill:rgb(35,31,32);fill-rule:nonzero;"/>
        </g>
        <g transform="matrix(-4.166667,0,0,4.166667,304.943333,-562.681667)">
            <rect x="50.808" y="152.314" width="22.378" height="2.79" style="fill:rgb(35,31,32);"/>
        </g>
        <g transform="matrix(4.166667,0,0,4.166667,26.810833,122.225417)">
            <path d="M0,3.844C-0.541,4.609 -1.45,5.104 -2.521,5.104C-4.286,5.104 -5.645,3.672 -5.645,1.926C-5.645,0.161 -4.286,-1.26 -2.521,-1.26C-1.468,-1.26 -0.567,-0.784 -0.027,-0.037L-0.945,0.62C-1.306,0.153 -1.864,-0.172 -2.521,-0.172C-3.646,-0.172 -4.493,0.765 -4.493,1.926C-4.493,3.078 -3.646,4.015 -2.521,4.015C-1.855,4.015 -1.27,3.682 -0.91,3.177L0,3.844Z" style="fill:rgb(35,31,32);fill-rule:nonzero;"/>
        </g>
        <g transform="matrix(4.166667,0,0,4.166667,35.093333,125.225)">
            <path d="M0,4.294L-1.099,4.294L-1.099,0.09L0,0.09L0,1.08C0.216,0.315 0.711,0 1.188,0C1.485,0 1.71,0.063 1.881,0.152L1.692,1.143C1.431,1.026 1.161,1.026 1.053,1.026C0.306,1.026 0,1.692 0,2.809L0,4.294Z" style="fill:rgb(35,31,32);fill-rule:nonzero;"/>
        </g>
        <g transform="matrix(4.166667,0,0,4.166667,54.667083,129.618333)">
            <path d="M0,2.267C0.594,2.267 1.152,1.853 1.152,1.133C1.152,0.404 0.576,-0.002 0,-0.002C-0.603,-0.002 -1.161,0.449 -1.161,1.133C-1.161,1.808 -0.603,2.267 0,2.267M1.152,2.7C0.882,3.131 0.261,3.321 -0.153,3.321C-1.26,3.321 -2.296,2.474 -2.296,1.133C-2.296,-0.217 -1.26,-1.054 -0.153,-1.054C0.225,-1.054 0.846,-0.911 1.152,-0.442L1.152,-0.964L2.25,-0.964L2.25,3.24L1.152,3.24L1.152,2.7Z" style="fill:rgb(35,31,32);fill-rule:nonzero;"/>
        </g>
        <g transform="matrix(4.166667,0,0,4.166667,80.542083,138.727083)">
            <path d="M0,-4.384L-0.459,-4.384C-0.972,-4.384 -1.143,-3.997 -1.143,-3.484L-1.143,-3.151L-0.252,-3.151L-0.252,-2.269L-1.143,-2.269L-1.143,1.054L-2.25,1.054L-2.25,-2.269L-3.052,-2.269L-3.052,-3.151L-2.25,-3.151L-2.25,-3.484C-2.25,-4.708 -1.638,-5.438 -0.459,-5.438L0,-5.438L0,-4.384Z" style="fill:rgb(35,31,32);fill-rule:nonzero;"/>
        </g>
        <g transform="matrix(4.166667,0,0,4.166667,89.95375,136.437083)">
            <path d="M0,-2.601L0.892,-2.601L0.892,-1.719L0,-1.719L0,1.603L-1.089,1.603L-1.089,-1.719L-1.854,-1.719L-1.854,-2.601L-1.089,-2.601L-1.089,-4.204L0,-4.204L0,-2.601Z" style="fill:rgb(35,31,32);fill-rule:nonzero;"/>
        </g>
        <g transform="matrix(4.166667,0,0,4.166667,111.855,121.66375)">
            <path d="M0,4.095L1.269,4.095C2.368,4.095 2.917,3.177 2.917,2.061C2.917,0.936 2.368,-0.001 1.269,-0.001L0,-0.001L0,4.095ZM-1.152,5.149L-1.152,-1.054L1.269,-1.054C3.042,-1.054 4.069,0.296 4.069,2.061C4.069,3.817 3.042,5.149 1.269,5.149L-1.152,5.149Z" style="fill:rgb(35,31,32);fill-rule:nonzero;"/>
        </g>
        <g transform="matrix(4.166667,0,0,4.166667,138.515417,125.225)">
            <path d="M0,4.294L-1.099,4.294L-1.099,0.09L0,0.09L0,1.08C0.216,0.315 0.711,0 1.188,0C1.485,0 1.71,0.063 1.881,0.152L1.692,1.143C1.431,1.026 1.161,1.026 1.053,1.026C0.306,1.026 0,1.692 0,2.809L0,4.294Z" style="fill:rgb(35,31,32);fill-rule:nonzero;"/>
        </g>
        <g transform="matrix(4.166667,0,0,4.166667,-211.698333,-459.04)">
            <path d="M87.84,144.518L86.751,144.518L86.751,140.314L87.84,140.314L87.84,144.518ZM87.3,138.026C87.678,138.026 87.994,138.315 87.994,138.684C87.994,139.062 87.678,139.35 87.3,139.35C86.913,139.35 86.589,139.062 86.589,138.684C86.589,138.315 86.913,138.026 87.3,138.026" style="fill:rgb(35,31,32);fill-rule:nonzero;"/>
        </g>
        <g transform="matrix(4.166667,0,0,4.166667,164.39,125.225)">
            <path d="M0,4.294L-1.099,4.294L-1.099,0.09L0,0.09L0,0.711C0.234,0.261 0.765,0 1.251,0C2.232,0 2.818,0.621 2.818,1.81L2.818,4.294L1.719,4.294L1.719,2.007C1.719,1.396 1.395,1.071 0.918,1.071C0.423,1.071 0,1.323 0,2.053L0,4.294Z" style="fill:rgb(35,31,32);fill-rule:nonzero;"/>
        </g>
        <g transform="matrix(4.166667,0,0,4.166667,186.06375,123.57625)">
            <path d="M0,2.889L0,4.69L-1.089,4.69L-1.089,-1.801L0,-1.801L0,1.745L1.162,0.486L2.584,0.486L0.819,2.331L2.962,4.69L1.584,4.69L0,2.889Z" style="fill:rgb(35,31,32);fill-rule:nonzero;"/>
        </g>
        <g transform="matrix(4.166667,0,0,4.166667,200.35,138.279583)">
            <path d="M0,-1.882C0,-2.557 0.711,-3.133 1.548,-3.133C2.341,-3.133 3.151,-2.774 3.187,-1.81L2.143,-1.81C2.125,-2.125 1.818,-2.242 1.575,-2.242C1.305,-2.242 1.044,-2.143 1.044,-1.828C1.044,-1.656 1.242,-1.54 1.485,-1.477L2.188,-1.306C3.16,-1.054 3.286,-0.378 3.286,-0.045C3.286,0.809 2.439,1.251 1.566,1.251C0.738,1.251 -0.108,0.747 -0.126,-0.162L0.9,-0.162C0.927,0.135 1.27,0.387 1.674,0.369C1.98,0.36 2.224,0.188 2.224,-0.055C2.232,-0.271 2.07,-0.378 1.765,-0.45L1.188,-0.595C0.099,-0.892 0,-1.387 0,-1.882" style="fill:rgb(35,31,32);fill-rule:nonzero;"/>
        </g>
        <g transform="matrix(4.166667,0,0,4.166667,236.690417,120.45875)">
            <path d="M0,4.475C0.612,4.475 1.107,4.015 1.107,3.323C1.107,2.638 0.612,2.188 0,2.188C-0.567,2.188 -1.117,2.602 -1.117,3.323C-1.117,4.025 -0.594,4.475 0,4.475M-2.233,5.438L-2.233,-1.053L-1.134,-1.053L-1.134,1.791C-0.909,1.369 -0.378,1.144 0.18,1.144C1.287,1.144 2.242,1.998 2.242,3.34C2.242,4.672 1.278,5.528 0.18,5.528C-0.369,5.528 -0.909,5.293 -1.134,4.871L-1.134,5.438L-2.233,5.438Z" style="fill:rgb(35,31,32);fill-rule:nonzero;"/>
        </g>
        <g transform="matrix(4.166667,0,0,4.166667,255.399583,125.599167)">
            <path d="M0,6.257L-1.161,6.257L-0.198,3.88L-1.836,0L-0.666,0L0.378,2.62L1.432,0L2.602,0L0,6.257Z" style="fill:rgb(35,31,32);fill-rule:nonzero;"/>
        </g>
        <g transform="matrix(4.166667,0,0,4.166667,284.4625,136.437083)">
            <path d="M0,-2.601L0.891,-2.601L0.891,-1.719L0,-1.719L0,1.603L-1.089,1.603L-1.089,-1.719L-1.854,-1.719L-1.854,-2.601L-1.089,-2.601L-1.089,-4.204L0,-4.204L0,-2.601Z" style="fill:rgb(35,31,32);fill-rule:nonzero;"/>
        </g>
        <g transform="matrix(4.166667,0,0,4.166667,296.425417,116.070833)">
            <path d="M0,6.491L-1.099,6.491L-1.099,0L0,0L0,2.935C0.198,2.422 0.891,2.197 1.305,2.197C2.395,2.197 2.998,2.917 2.998,4.15L2.998,6.491L1.899,6.491L1.899,4.204C1.899,3.601 1.458,3.268 1.008,3.268C0.549,3.268 0,3.52 0,4.25L0,6.491Z" style="fill:rgb(35,31,32);fill-rule:nonzero;"/>
        </g>
        <g transform="matrix(4.166667,0,0,4.166667,326.68875,135.94875)">
            <path d="M0,-0.764C-0.081,-1.34 -0.513,-1.656 -1.053,-1.656C-1.629,-1.656 -2.08,-1.331 -2.161,-0.764L0,-0.764ZM1.053,-0.017L-2.152,-0.017C-2.08,0.541 -1.611,0.883 -0.99,0.883C-0.567,0.883 -0.135,0.703 0.063,0.343C0.324,0.487 0.63,0.649 0.9,0.793C0.522,1.513 -0.288,1.81 -1.063,1.81C-2.26,1.81 -3.241,0.928 -3.241,-0.395C-3.241,-1.719 -2.26,-2.574 -1.063,-2.574C0.135,-2.574 1.071,-1.719 1.071,-0.395C1.071,-0.287 1.063,-0.117 1.053,-0.017" style="fill:rgb(35,31,32);fill-rule:nonzero;"/>
        </g>
        <g transform="matrix(4.166667,0,0,4.166667,344.948333,143.11625)">
            <path d="M0,-6.203L1.152,-6.203L1.152,-1.026L3.547,-1.026L3.547,0L0,0L0,-6.203Z" style="fill:rgb(35,31,32);fill-rule:nonzero;"/>
        </g>
        <g transform="matrix(4.166667,0,0,4.166667,372.09875,129.618333)">
            <path d="M0,2.267C0.594,2.267 1.152,1.853 1.152,1.133C1.152,0.404 0.576,-0.002 0,-0.002C-0.603,-0.002 -1.161,0.449 -1.161,1.133C-1.161,1.808 -0.603,2.267 0,2.267M1.152,2.7C0.882,3.131 0.261,3.321 -0.153,3.321C-1.26,3.321 -2.296,2.474 -2.296,1.133C-2.296,-0.217 -1.26,-1.054 -0.153,-1.054C0.225,-1.054 0.846,-0.911 1.152,-0.442L1.152,-0.964L2.25,-0.964L2.25,3.24L1.152,3.24L1.152,2.7Z" style="fill:rgb(35,31,32);fill-rule:nonzero;"/>
        </g>
        <g transform="matrix(4.166667,0,0,4.166667,391.560833,123.57625)">
            <path d="M0,2.889L0,4.69L-1.089,4.69L-1.089,-1.801L0,-1.801L0,1.745L1.162,0.486L2.584,0.486L0.819,2.331L2.962,4.69L1.584,4.69L0,2.889Z" style="fill:rgb(35,31,32);fill-rule:nonzero;"/>
        </g>
        <g transform="matrix(4.166667,0,0,4.166667,418.337083,135.94875)">
            <path d="M0,-0.764C-0.081,-1.34 -0.513,-1.656 -1.053,-1.656C-1.629,-1.656 -2.08,-1.331 -2.161,-0.764L0,-0.764ZM1.053,-0.017L-2.152,-0.017C-2.08,0.541 -1.611,0.883 -0.99,0.883C-0.567,0.883 -0.135,0.703 0.063,0.343C0.324,0.487 0.63,0.649 0.901,0.793C0.522,1.513 -0.288,1.81 -1.063,1.81C-2.26,1.81 -3.241,0.928 -3.241,-0.395C-3.241,-1.719 -2.26,-2.574 -1.063,-2.574C0.135,-2.574 1.071,-1.719 1.071,-0.395C1.071,-0.287 1.063,-0.117 1.053,-0.017" style="fill:rgb(35,31,32);fill-rule:nonzero;"/>
        </g>
    </g>
</svg>
