<svg width="48" height="48" viewBox="0 0 48 48" fill="none" xmlns="http://www.w3.org/2000/svg">
<g filter="url(#filter0_dd_54641_1354)">
<circle cx="24" cy="23" r="20" fill="#FF5628"/>
<path d="M24 33.8333C23.7472 33.8333 23.5305 33.7611 23.35 33.6167C23.1694 33.4722 23.034 33.2826 22.9437 33.0479C22.6007 32.0368 22.1673 31.0889 21.6437 30.2042C21.1382 29.3194 20.425 28.2812 19.5041 27.0896C18.5833 25.8979 17.834 24.7604 17.2562 23.6771C16.6965 22.5937 16.4166 21.2847 16.4166 19.75C16.4166 17.6375 17.1479 15.85 18.6104 14.3875C20.0909 12.9069 21.8875 12.1667 24 12.1667C26.1125 12.1667 27.9 12.9069 29.3625 14.3875C30.843 15.85 31.5833 17.6375 31.5833 19.75C31.5833 21.393 31.2673 22.7653 30.6354 23.8667C30.0215 24.95 29.3083 26.0243 28.4958 27.0896C27.5208 28.3896 26.7805 29.4729 26.275 30.3396C25.7875 31.1882 25.3812 32.091 25.0562 33.0479C24.9659 33.3007 24.8215 33.4993 24.6229 33.6437C24.4423 33.7701 24.2347 33.8333 24 33.8333ZM24 29.9604C24.3069 29.3465 24.65 28.7417 25.0291 28.1458C25.4263 27.55 26.0041 26.7555 26.7625 25.7625C27.5388 24.7514 28.1708 23.8215 28.6583 22.9729C29.1638 22.1062 29.4166 21.0319 29.4166 19.75C29.4166 18.2514 28.884 16.9785 27.8187 15.9312C26.7715 14.866 25.4986 14.3333 24 14.3333C22.5013 14.3333 21.2194 14.866 20.1541 15.9312C19.1069 16.9785 18.5833 18.2514 18.5833 19.75C18.5833 21.0319 18.827 22.1062 19.3145 22.9729C19.8201 23.8215 20.4611 24.7514 21.2375 25.7625C21.9958 26.7555 22.5645 27.55 22.9437 28.1458C23.3409 28.7417 23.693 29.3465 24 29.9604ZM24 22.4583C24.7583 22.4583 25.3993 22.1965 25.9229 21.6729C26.4465 21.1493 26.7083 20.5083 26.7083 19.75C26.7083 18.9917 26.4465 18.3507 25.9229 17.8271C25.3993 17.3035 24.7583 17.0417 24 17.0417C23.2416 17.0417 22.6007 17.3035 22.077 17.8271C21.5534 18.3507 21.2916 18.9917 21.2916 19.75C21.2916 20.5083 21.5534 21.1493 22.077 21.6729C22.6007 22.1965 23.2416 22.4583 24 22.4583Z" fill="white"/>
</g>
<defs>
<filter id="filter0_dd_54641_1354" x="0" y="0" width="48" height="48" filterUnits="userSpaceOnUse" color-interpolation-filters="sRGB">
<feFlood flood-opacity="0" result="BackgroundImageFix"/>
<feColorMatrix in="SourceAlpha" type="matrix" values="0 0 0 0 0 0 0 0 0 0 0 0 0 0 0 0 0 0 127 0" result="hardAlpha"/>
<feMorphology radius="1" operator="dilate" in="SourceAlpha" result="effect1_dropShadow_54641_1354"/>
<feOffset dy="1"/>
<feGaussianBlur stdDeviation="1.5"/>
<feColorMatrix type="matrix" values="0 0 0 0 0 0 0 0 0 0 0 0 0 0 0 0 0 0 0.15 0"/>
<feBlend mode="normal" in2="BackgroundImageFix" result="effect1_dropShadow_54641_1354"/>
<feColorMatrix in="SourceAlpha" type="matrix" values="0 0 0 0 0 0 0 0 0 0 0 0 0 0 0 0 0 0 127 0" result="hardAlpha"/>
<feOffset dy="1"/>
<feGaussianBlur stdDeviation="1"/>
<feColorMatrix type="matrix" values="0 0 0 0 0 0 0 0 0 0 0 0 0 0 0 0 0 0 0.3 0"/>
<feBlend mode="normal" in2="effect1_dropShadow_54641_1354" result="effect2_dropShadow_54641_1354"/>
<feBlend mode="normal" in="SourceGraphic" in2="effect2_dropShadow_54641_1354" result="shape"/>
</filter>
</defs>
</svg>
